<?xml version="1.0" standalone="no"?>
<!DOCTYPE svg PUBLIC "-//W3C//DTD SVG 20010904//EN"
 "http://www.w3.org/TR/2001/REC-SVG-20010904/DTD/svg10.dtd">
<svg version="1.0" xmlns="http://www.w3.org/2000/svg"
 width="500.000000pt" height="500.000000pt" viewBox="0 0 500.000000 500.000000"
 preserveAspectRatio="xMidYMid meet">
<metadata>
Created by potrace 1.14, written by Peter Selinger 2001-2017
</metadata>
<g transform="translate(0.000000,500.000000) scale(0.100000,-0.100000)"
fill="#000000" stroke="none">
<path d="M2711 4829 c-18 -4 -45 -16 -60 -27 -21 -16 -26 -27 -25 -63 2 -83
16 -179 44 -309 37 -166 40 -173 91 -198 51 -25 146 -38 214 -28 80 13 105 47
164 231 28 87 56 187 63 221 11 60 10 65 -13 98 -13 20 -36 41 -51 47 -54 22
-197 5 -199 -24 -1 -31 -10 -124 -14 -142 -2 -11 -4 -26 -4 -32 -1 -7 -6 -13
-12 -13 -5 0 -8 4 -5 9 3 4 8 37 11 72 5 53 3 69 -13 95 -32 51 -117 79 -191
63z m199 -318 c-11 -81 -23 -93 -14 -15 6 64 12 89 19 83 2 -3 0 -33 -5 -68z"/>
<path d="M2295 4770 c-47 -21 -85 -55 -85 -76 0 -8 14 -28 30 -44 52 -51 32
-44 -26 9 -50 46 -60 51 -102 51 -49 0 -137 -34 -160 -62 -12 -15 -9 -68 4
-90 3 -4 7 -18 9 -30 5 -24 58 -212 75 -264 14 -43 13 -47 -12 -30 -23 17 -58
21 -58 8 0 -4 -10 -13 -22 -21 -23 -14 -23 -14 -4 8 17 18 18 26 7 60 -12 41
-75 106 -92 96 -5 -4 -9 -1 -9 4 0 6 5 11 10 11 6 0 10 17 10 38 0 45 -40 104
-82 123 -25 10 -33 7 -95 -37 -37 -26 -97 -67 -133 -92 -96 -67 -145 -108
-159 -136 -12 -22 -8 -31 51 -117 36 -52 95 -138 132 -191 36 -53 78 -106 93
-117 34 -27 88 -27 136 2 105 62 297 202 297 216 0 13 12 16 68 16 59 0 76 4
118 30 27 17 50 39 52 49 2 11 -17 38 -55 73 l-58 56 65 -54 c36 -29 73 -59
83 -68 36 -30 162 -5 210 43 22 23 22 54 -4 140 -12 39 -22 76 -24 81 -1 6 -8
30 -15 55 -7 25 -14 50 -16 55 -26 106 -56 183 -79 202 -33 29 -102 30 -160 3z
m-455 -394 c0 -2 -8 -10 -17 -17 -16 -13 -17 -12 -4 4 13 16 21 21 21 13z
m-65 -50 c-30 -25 -95 -65 -84 -52 10 10 103 76 109 76 3 0 -8 -11 -25 -24z
m125 -129 c0 -2 -10 -12 -22 -23 l-23 -19 19 23 c18 21 26 27 26 19z m-55 -47
c-3 -5 -16 -15 -28 -21 -19 -9 -19 -8 3 10 28 23 34 26 25 11z"/>
<path d="M3373 4719 c-18 -5 -37 -18 -43 -29 -6 -11 -9 -20 -7 -20 3 0 -1 -24
-8 -52 -15 -66 -10 -180 10 -233 4 -11 18 -44 31 -72 24 -56 25 -72 1 -26
l-14 27 -21 -47 c-11 -25 -21 -56 -23 -69 -6 -63 58 -119 158 -137 68 -13 85
-3 117 72 24 56 32 67 69 83 144 63 233 169 228 271 -2 33 -56 90 -105 108
-68 26 -95 18 -140 -43 -21 -29 -41 -51 -43 -48 -2 2 0 35 5 73 7 64 6 72 -12
87 -61 51 -141 72 -203 55z m207 -233 c0 -3 -4 -8 -10 -11 -5 -3 -10 -1 -10 4
0 6 5 11 10 11 6 0 10 -2 10 -4z m-42 -56 c-22 -30 -35 -41 -22 -17 9 16 36
47 41 47 2 0 -6 -13 -19 -30z"/>
<path d="M4226 4188 c-11 -6 -28 -19 -40 -28 -30 -26 -196 -159 -242 -195
-121 -94 -123 -129 -16 -269 97 -126 190 -203 251 -208 37 -3 37 -5 11 -26
-44 -37 -33 -141 24 -214 36 -47 62 -52 100 -20 18 15 18 14 -1 -8 -12 -14
-29 -42 -38 -62 -49 -119 44 -237 169 -214 29 6 37 14 55 56 23 53 26 70 12
70 -5 0 -12 8 -15 17 -6 14 -2 13 16 -4 50 -47 114 -58 184 -32 128 48 169
173 113 350 -24 76 -89 182 -131 212 l-26 20 -159 -56 c-87 -30 -167 -58 -178
-63 -17 -6 -16 -3 6 22 37 41 49 67 49 108 0 32 3 35 23 32 47 -7 109 36 137
97 35 77 -8 191 -111 302 -87 92 -157 133 -193 113z m64 -303 c-7 -8 -17 -15
-23 -15 -5 0 -2 9 8 20 21 23 35 19 15 -5z m-135 -105 c-10 -11 -20 -18 -23
-15 -7 6 18 35 31 35 5 0 2 -9 -8 -20z m215 -85 c0 -5 -5 -3 -10 5 -5 8 -10
20 -10 25 0 6 5 3 10 -5 5 -8 10 -19 10 -25z m226 -380 c-19 -15 -46 -20 -46
-10 0 6 40 24 55 24 6 0 1 -6 -9 -14z m-226 -49 c0 -2 -8 -10 -17 -17 -16 -13
-17 -12 -4 4 13 16 21 21 21 13z"/>
<path d="M2629 3966 c-2 -2 -24 -7 -49 -9 -233 -28 -478 -138 -678 -306 -62
-53 -75 -60 -96 -51 -13 5 -59 16 -103 25 -43 9 -87 19 -98 21 -11 2 -72 7
-135 10 -130 6 -144 9 -137 28 7 18 -24 84 -58 124 -80 95 -260 106 -351 21
-26 -24 -30 -24 -60 5 -46 42 -112 69 -173 69 -74 0 -94 -6 -149 -46 -52 -37
-98 -115 -106 -182 -3 -22 -5 -40 -6 -41 0 0 -12 -1 -27 -1 -82 -1 -130 -19
-186 -72 -51 -47 -71 -98 -71 -181 0 -77 7 -96 60 -162 l22 -28 -30 -32 c-84
-89 -96 -223 -29 -317 20 -27 20 -27 -4 -109 -13 -45 -26 -98 -30 -119 -3 -21
-7 -45 -10 -53 -15 -53 -22 -305 -10 -385 14 -96 27 -157 42 -207 9 -29 18
-60 19 -68 2 -8 15 -44 30 -80 156 -382 376 -588 904 -848 102 -50 221 -105
265 -122 44 -18 94 -38 110 -45 181 -80 647 -235 952 -315 128 -34 119 -36
193 30 147 131 206 185 360 332 96 91 193 186 215 211 22 25 72 78 110 119 39
40 97 105 130 143 33 39 66 76 73 83 7 8 25 30 40 50 15 21 33 43 39 50 25 26
180 238 213 292 19 30 37 57 40 60 38 36 179 349 196 435 2 11 6 31 8 45 15
79 19 118 20 245 3 232 -42 437 -143 642 -31 63 -106 184 -138 224 -94 115
-158 179 -259 259 -96 76 -250 156 -384 198 -58 18 -91 26 -195 48 -35 7 -320
16 -326 10z"/>
<path d="M4492 2932 c-114 -41 -179 -132 -189 -266 -14 -183 92 -308 275 -323
155 -12 273 47 329 165 21 45 26 70 26 136 1 186 -108 296 -303 303 -64 3 -98
-1 -138 -15z m206 -293 c-16 -10 -141 -10 -157 0 -8 6 21 8 77 8 50 -1 86 -5
80 -8z"/>
<path d="M4297 2308 c-39 -41 -107 -167 -107 -199 0 -8 -3 -19 -7 -23 -10 -10
-15 -85 -8 -133 3 -23 17 -58 31 -79 21 -30 22 -35 7 -29 -10 4 -38 9 -63 12
-82 8 -146 -53 -144 -138 1 -71 60 -137 119 -133 11 0 32 2 48 3 38 2 96 58
106 102 10 42 -9 106 -36 128 -20 15 -17 14 51 -18 70 -33 141 -26 198 19 35
27 38 28 19 7 -22 -25 -23 -28 -8 -50 18 -28 81 -60 118 -60 82 0 190 183 192
324 1 70 -14 118 -48 157 -51 60 -162 83 -214 44 -19 -14 -28 -16 -28 -7 0 59
-71 115 -148 115 -32 0 -45 -7 -78 -42z m202 -183 c-26 -37 -66 -60 -96 -52
-12 3 -10 5 9 6 31 1 84 42 93 72 4 11 9 18 12 15 3 -3 -5 -21 -18 -41z m51
-245 c-6 -11 -13 -20 -16 -20 -2 0 0 9 6 20 6 11 13 20 16 20 2 0 0 -9 -6 -20z"/>
</g>
</svg>
