<?xml version="1.0" standalone="no"?>
<!DOCTYPE svg PUBLIC "-//W3C//DTD SVG 20010904//EN"
 "http://www.w3.org/TR/2001/REC-SVG-20010904/DTD/svg10.dtd">
<svg version="1.0" xmlns="http://www.w3.org/2000/svg"
 width="1080.000000pt" height="1080.000000pt" viewBox="0 0 1080.000000 1080.000000"
 preserveAspectRatio="xMidYMid meet">
<metadata>
Created by potrace 1.14, written by Peter Selinger 2001-2017
</metadata>
<g transform="translate(0.000000,1080.000000) scale(0.100000,-0.100000)"
fill="#000000" stroke="none">
<path d="M5035 9520 c-27 -9 -111 -55 -186 -101 -75 -46 -200 -122 -278 -169
-231 -139 -294 -183 -328 -228 -63 -84 -63 -82 -63 -759 l0 -613 -1397 -2
-1398 -3 -83 -50 c-46 -27 -102 -62 -125 -77 -23 -15 -49 -31 -57 -35 -37 -17
-268 -164 -298 -188 -18 -15 -45 -48 -60 -74 l-27 -46 0 -2865 c0 -2623 1
-2868 16 -2901 26 -56 75 -105 129 -128 l49 -21 3428 3 c3192 3 3434 4 3513
20 164 33 376 89 470 124 221 82 468 218 640 352 52 41 134 90 214 129 153 74
217 112 347 203 487 343 831 863 958 1451 43 195 55 310 54 523 -2 271 -39
499 -124 760 -73 222 -242 536 -381 706 l-45 55 40 50 c79 97 200 291 268 430
181 371 268 814 239 1214 -38 525 -214 968 -547 1376 -358 437 -900 749 -1463
843 -244 40 -282 41 -1898 40 -1476 0 -1560 -1 -1607 -19z m2671 -440 c61 -6
145 -17 185 -24 l74 -13 -85 -7 c-299 -25 -532 -72 -758 -153 -68 -24 -73 -27
-70 -52 5 -39 39 -38 179 9 132 43 349 91 514 112 55 6 195 12 310 12 l210 -1
90 -33 c50 -19 149 -64 221 -100 678 -346 1140 -980 1261 -1736 25 -157 25
-556 0 -709 -41 -245 -106 -454 -211 -670 -71 -147 -201 -353 -287 -455 -49
-58 -49 -55 22 -140 64 -76 184 -263 242 -377 115 -224 191 -458 234 -718 25
-155 25 -552 0 -713 -37 -234 -108 -459 -212 -670 -357 -726 -1046 -1213
-1851 -1307 -110 -13 -365 -15 -1734 -15 l-1606 0 -53 26 c-57 29 -100 79
-126 147 -14 38 -15 393 -13 3727 3 3572 4 3686 22 3720 36 68 97 120 166 141
40 12 3146 11 3276 -1z m-3526 -2400 l0 -630 -1058 0 c-810 0 -1061 -3 -1070
-12 -9 -9 -12 -82 -12 -265 l0 -253 -72 7 c-40 5 -161 8 -268 7 -159 -1 -214
-5 -300 -23 -127 -26 -195 -48 -209 -65 -20 -24 19 -24 124 0 242 56 461 55
703 -1 22 -5 22 -7 22 -195 l0 -189 -42 15 c-71 25 -198 52 -282 60 l-79 7 7
113 c7 101 6 115 -9 120 -29 11 -37 -12 -43 -121 -3 -65 -9 -108 -16 -110 -6
-2 -46 -5 -89 -8 l-77 -4 -11 41 c-6 23 -9 74 -7 114 3 39 2 72 -2 72 -4 0
-18 -9 -31 -19 -22 -18 -24 -25 -22 -119 l1 -99 -72 -13 c-81 -14 -246 -62
-312 -90 l-44 -19 41 -83 c82 -164 182 -290 301 -381 241 -184 549 -231 917
-141 162 40 431 150 431 176 0 35 -176 243 -275 326 l-50 41 503 1 c276 0 502
-3 502 -7 0 -5 -16 -19 -36 -32 -75 -52 -299 -319 -282 -336 16 -16 223 -104
318 -135 305 -101 601 -104 832 -10 l68 28 0 -384 0 -384 -1059 0 c-881 0
-1060 -2 -1070 -14 -8 -9 -10 -162 -9 -552 l3 -539 1067 -3 1067 -2 3 -538 3
-537 24 -49 c13 -27 43 -69 66 -93 l42 -43 -1692 0 -1692 0 -44 23 c-29 16
-54 40 -74 72 l-30 48 0 2856 c0 2643 1 2858 17 2886 24 44 70 85 114 100 33
12 308 14 1652 15 l1612 0 0 -630z m0 -915 l0 -225 -187 0 c-157 0 -208 -4
-309 -24 -109 -22 -202 -47 -226 -62 -16 -10 13 -34 54 -45 33 -8 52 -7 107
10 154 46 256 61 411 61 l150 0 0 -95 0 -95 -44 0 c-41 0 -44 2 -50 32 -3 17
-11 37 -17 45 -14 16 -59 17 -60 1 -2 -20 -2 -21 5 -50 l6 -28 -720 0 -720 0
0 350 0 350 800 0 800 0 0 -225z m-2507 -685 c0 -8 -11 -51 -23 -95 -45 -162
-25 -375 49 -524 35 -71 36 -70 -77 -46 -266 55 -482 230 -620 500 -23 43 -28
62 -19 67 22 14 200 66 287 83 117 24 209 33 315 31 74 -1 90 -4 88 -16z
m1769 -184 c52 -197 191 -369 373 -460 l66 -34 -78 -7 c-83 -7 -218 6 -342 31
-150 31 -431 138 -431 164 0 22 129 178 195 236 68 60 173 134 190 134 6 0 18
-29 27 -64z m738 -1626 l0 -350 -800 0 -800 0 0 350 0 350 800 0 800 0 0 -350z"/>
<path d="M5325 8999 c-136 -14 -327 -47 -450 -79 -169 -44 -190 -53 -193 -82
-5 -39 19 -41 129 -8 257 76 459 104 759 104 311 0 530 -34 817 -125 132 -43
159 -45 177 -16 16 27 -9 42 -150 87 -256 81 -494 119 -789 125 -115 2 -250 0
-300 -6z"/>
<path d="M5365 8609 c-279 -13 -502 -77 -615 -177 -101 -89 -130 -208 -73
-300 70 -112 289 -205 588 -248 187 -28 574 -25 765 4 251 39 376 75 464 133
125 83 138 247 30 368 -85 95 -268 164 -521 196 -158 20 -461 32 -638 24z
m520 -69 c374 -35 583 -117 639 -252 9 -21 16 -56 16 -78 0 -136 -141 -207
-520 -265 -139 -21 -370 -32 -370 -17 0 6 8 41 17 79 26 105 23 332 -5 446
-12 49 -22 90 -22 93 0 7 133 4 245 -6z"/>
<path d="M7710 8603 c-111 -7 -289 -33 -382 -57 -253 -64 -378 -174 -378 -333
0 -35 6 -78 14 -96 32 -79 162 -153 331 -190 475 -106 1068 -79 1380 62 131
60 194 119 216 203 19 68 -6 140 -71 211 -86 94 -240 156 -475 192 -93 14
-462 19 -635 8z m645 -68 c216 -35 331 -80 412 -160 119 -120 89 -231 -84
-319 -157 -79 -448 -136 -690 -136 -66 0 -74 2 -69 17 48 125 51 377 6 539
-14 52 -16 71 -7 77 17 12 327 0 432 -18z"/>
<path d="M6679 7943 c-20 -23 -16 -154 6 -232 25 -85 76 -141 129 -141 88 0
138 69 156 219 12 89 4 121 -30 121 -33 0 -47 -26 -53 -102 -11 -154 -58 -201
-106 -105 -18 38 -25 70 -29 145 -3 55 -10 100 -16 104 -19 13 -43 9 -57 -9z"/>
<path d="M5001 7763 c-52 -18 -118 -81 -146 -138 -15 -29 -20 -60 -20 -115 0
-88 19 -134 80 -196 165 -165 457 -40 457 196 0 190 -187 318 -371 253z m197
-62 c74 -38 114 -105 114 -192 0 -73 -30 -131 -90 -174 -40 -27 -51 -30 -120
-30 -68 0 -82 3 -119 29 -53 36 -93 111 -93 175 1 82 53 165 125 197 45 20
139 17 183 -5z"/>
<path d="M8562 7747 c-48 -15 -126 -89 -151 -142 -31 -66 -29 -165 5 -233 69
-139 237 -191 375 -116 93 51 144 146 137 253 -11 149 -121 252 -268 250 -36
-1 -80 -6 -98 -12z m205 -73 c58 -34 93 -88 100 -156 10 -96 -37 -181 -122
-219 -99 -45 -224 -2 -273 93 -98 192 110 391 295 282z"/>
<path d="M6145 7450 c-102 -14 -187 -77 -235 -172 l-30 -61 0 -472 c0 -534 -1
-529 76 -614 26 -29 69 -62 102 -78 l57 -28 715 -3 c467 -2 739 1 784 8 322
50 563 297 606 624 20 146 -13 309 -87 435 -77 131 -228 261 -359 311 -127 47
-141 48 -879 52 -385 3 -723 1 -750 -2z m1505 -74 c76 -22 199 -76 238 -106
158 -122 246 -270 274 -465 10 -71 9 -95 -5 -169 -10 -48 -25 -104 -33 -126
l-16 -40 -665 0 c-476 0 -677 3 -704 12 -55 16 -113 69 -143 130 l-26 52 0
369 0 368 508 -4 c449 -3 514 -6 572 -21z"/>
<path d="M6113 4375 c-100 -28 -164 -84 -212 -185 l-26 -55 0 -460 c0 -419 2
-465 18 -512 24 -70 93 -145 165 -180 l57 -28 705 -3 c736 -3 805 0 925 40
136 44 278 154 360 279 182 272 155 634 -63 870 -102 110 -222 183 -372 224
-59 17 -126 19 -785 21 -603 3 -728 1 -772 -11z m1551 -75 c116 -29 222 -89
308 -174 106 -104 164 -222 189 -385 10 -67 10 -92 -5 -170 -9 -51 -24 -110
-32 -132 l-16 -39 -672 0 -672 0 -55 28 c-60 30 -112 91 -129 150 -6 22 -10
178 -10 390 l0 352 508 0 c473 0 514 -1 586 -20z"/>
<path d="M2867 4446 c-8 -9 -21 -48 -27 -88 -7 -40 -21 -101 -32 -136 -25 -81
-33 -75 -89 68 -33 85 -47 110 -61 110 -30 0 -33 -30 -8 -99 87 -246 149 -275
203 -95 35 117 45 161 49 208 3 43 -11 56 -35 32z"/>
<path d="M1039 4416 c-153 -55 -189 -245 -66 -353 116 -102 296 -21 315 143
10 89 -58 189 -145 213 -48 14 -59 13 -104 -3z m138 -64 c63 -45 83 -150 41
-212 -36 -52 -71 -73 -121 -73 -88 0 -149 63 -149 153 0 94 69 165 153 157 26
-2 60 -13 76 -25z"/>
</g>
</svg>
