<?xml version="1.0" standalone="no"?>
<!DOCTYPE svg PUBLIC "-//W3C//DTD SVG 20010904//EN"
 "http://www.w3.org/TR/2001/REC-SVG-20010904/DTD/svg10.dtd">
<svg version="1.0" xmlns="http://www.w3.org/2000/svg"
 width="700.000000pt" height="700.000000pt" viewBox="0 0 700.000000 700.000000"
 preserveAspectRatio="xMidYMid meet">
<metadata>
Created by potrace 1.14, written by Peter Selinger 2001-2017
</metadata>
<g transform="translate(0.000000,700.000000) scale(0.100000,-0.100000)"
fill="#000000" stroke="none">
<path d="M3312 6985 c-29 -8 -64 -23 -77 -32 -46 -35 -47 -50 -16 -236 17 -94
32 -190 36 -212 3 -23 7 -52 10 -65 3 -13 7 -40 10 -60 3 -20 7 -47 10 -60 3
-14 8 -47 11 -75 l6 -50 -44 46 c-161 169 -372 291 -620 359 -96 26 -121 29
-274 37 -184 8 -355 -19 -532 -87 -67 -26 -175 -81 -228 -117 -23 -15 -60 -41
-84 -56 -47 -32 -241 -222 -258 -254 -9 -16 -3 -35 34 -107 84 -168 201 -315
332 -422 40 -32 79 -64 85 -70 7 -5 38 -26 70 -44 31 -19 57 -37 57 -40 -1 -3
-26 -23 -57 -44 -193 -134 -449 -374 -588 -551 -16 -21 -35 -43 -40 -49 -38
-40 -215 -305 -238 -356 -4 -8 -23 -44 -43 -80 -93 -167 -229 -518 -258 -664
-3 -12 -14 -65 -25 -118 -11 -53 -23 -118 -27 -145 -3 -26 -8 -55 -9 -64 -27
-142 -27 -696 0 -799 3 -8 6 -28 9 -45 21 -139 19 -129 46 -240 37 -153 74
-270 138 -430 22 -57 146 -311 178 -365 263 -452 694 -875 1134 -1113 30 -17
73 -40 95 -52 57 -31 341 -150 395 -164 25 -7 52 -16 60 -21 42 -21 358 -93
465 -106 22 -2 54 -7 70 -9 156 -23 575 -24 716 0 13 2 60 9 104 15 44 7 89
14 100 17 11 2 31 6 45 9 14 3 33 7 42 10 9 3 25 6 35 8 60 12 291 81 338 101
17 7 48 20 70 28 22 8 61 24 88 36 26 11 48 20 50 20 1 0 52 25 112 57 61 32
120 62 132 68 13 6 23 14 23 19 0 4 5 7 10 7 6 0 47 24 93 53 430 278 780 658
1025 1114 110 205 229 520 266 703 3 14 12 61 21 105 9 44 18 92 20 108 33
234 34 249 34 467 1 166 -1 203 -14 329 -58 561 -297 1123 -668 1571 -147 178
-408 418 -574 530 -29 19 -53 37 -53 40 0 3 24 19 52 35 123 71 267 204 366
335 70 92 83 114 132 215 31 64 36 83 28 99 -22 41 -226 234 -301 284 -130 87
-315 172 -412 189 -16 3 -38 9 -47 14 -9 5 -21 8 -25 7 -4 -1 -30 2 -58 6 -93
15 -263 22 -325 12 -14 -2 -50 -7 -80 -10 -293 -38 -603 -212 -809 -453 -47
-55 -72 -79 -58 -55 3 4 8 68 11 142 4 74 9 162 11 195 2 33 7 114 10 180 3
66 8 149 11 185 7 90 -4 112 -68 144 -69 34 -205 44 -286 21z"/>
</g>
</svg>
